<svg width="32" height="32" viewBox="0 0 32 32" fill="none" xmlns="http://www.w3.org/2000/svg">
<path d="M20.522 17.0918L22.5308 28.397C22.5533 28.5301 22.5346 28.6669 22.4773 28.7891C22.4199 28.9114 22.3266 29.0132 22.2098 29.0809C22.0931 29.1487 21.9584 29.1792 21.8238 29.1683C21.6892 29.1575 21.5612 29.1058 21.4568 29.0202L16.7098 25.4573C16.4807 25.2861 16.2023 25.1936 15.9162 25.1936C15.6302 25.1936 15.3518 25.2861 15.1226 25.4573L10.3677 29.0189C10.2634 29.1043 10.1355 29.1559 10.0011 29.1668C9.86667 29.1776 9.73214 29.1473 9.61545 29.0797C9.49875 29.0121 9.40543 28.9106 9.34794 28.7886C9.29045 28.6666 9.27152 28.53 9.29368 28.397L11.3012 17.0918" stroke="#6B7280" stroke-width="1.98895" stroke-linecap="round" stroke-linejoin="round"/>
<path d="M15.9116 18.5635C20.3055 18.5635 23.8674 15.0015 23.8674 10.6077C23.8674 6.21379 20.3055 2.65186 15.9116 2.65186C11.5177 2.65186 7.95581 6.21379 7.95581 10.6077C7.95581 15.0015 11.5177 18.5635 15.9116 18.5635Z" stroke="#6B7280" stroke-width="1.98895" stroke-linecap="round" stroke-linejoin="round"/>
</svg>
