<svg width="28" height="28" viewBox="0 0 28 28" fill="none" xmlns="http://www.w3.org/2000/svg">
<path d="M2.32031 11.0222C2.32034 9.73106 2.712 8.47034 3.44356 7.40651C4.17513 6.34268 5.21218 5.52579 6.41776 5.06372C7.62333 4.60165 8.94072 4.51615 10.1959 4.8185C11.4511 5.12085 12.585 5.79684 13.448 6.75718C13.5088 6.82217 13.5823 6.87398 13.6639 6.9094C13.7455 6.94482 13.8335 6.9631 13.9225 6.9631C14.0115 6.9631 14.0995 6.94482 14.1812 6.9094C14.2628 6.87398 14.3363 6.82217 14.3971 6.75718C15.2573 5.7906 16.3915 5.10893 17.6487 4.8029C18.906 4.49688 20.2266 4.581 21.4348 5.04409C22.643 5.50718 23.6816 6.32726 24.4122 7.39518C25.1428 8.46311 25.5309 9.72823 25.5247 11.0222C25.5247 13.6791 23.7844 15.663 22.0441 17.4034L15.6721 23.5676C15.4559 23.8159 15.1894 24.0154 14.8902 24.1527C14.591 24.2901 14.266 24.3622 13.9368 24.3643C13.6076 24.3664 13.2817 24.2984 12.9808 24.1648C12.6798 24.0313 12.4108 23.8352 12.1915 23.5897L5.80098 17.4034C4.06064 15.663 2.32031 13.6907 2.32031 11.0222Z" stroke="#6B7280" stroke-width="1.74033" stroke-linecap="round" stroke-linejoin="round"/>
</svg>
