<svg width="32" height="32" viewBox="0 0 32 32" fill="none" xmlns="http://www.w3.org/2000/svg">
<path d="M5.30388 18.5635C5.05296 18.5643 4.80695 18.494 4.59442 18.3606C4.3819 18.2272 4.21159 18.0362 4.10328 17.8099C3.99497 17.5835 3.95311 17.3311 3.98255 17.0819C4.012 16.8327 4.11154 16.597 4.26962 16.4022L17.3967 2.87731C17.4952 2.76365 17.6293 2.68684 17.7772 2.65949C17.9251 2.63215 18.0779 2.65589 18.2105 2.72681C18.3431 2.79774 18.4476 2.91164 18.507 3.04982C18.5663 3.188 18.5769 3.34225 18.537 3.48725L15.9912 11.4696C15.9161 11.6705 15.8909 11.8866 15.9177 12.0994C15.9445 12.3122 16.0225 12.5153 16.1451 12.6914C16.2677 12.8674 16.4311 13.011 16.6214 13.11C16.8116 13.209 17.0231 13.2603 17.2376 13.2596H26.5193C26.7703 13.2588 27.0163 13.3291 27.2288 13.4625C27.4413 13.5959 27.6116 13.7869 27.7199 14.0132C27.8283 14.2396 27.8701 14.492 27.8407 14.7412C27.8112 14.9904 27.7117 15.2261 27.5536 15.421L14.4265 28.9458C14.3281 29.0595 14.1939 29.1363 14.046 29.1636C13.8981 29.191 13.7453 29.1672 13.6127 29.0963C13.4801 29.0254 13.3756 28.9115 13.3163 28.7733C13.2569 28.6351 13.2463 28.4809 13.2862 28.3359L15.8321 20.3536C15.9071 20.1526 15.9323 19.9365 15.9055 19.7237C15.8787 19.5109 15.8007 19.3078 15.6781 19.1318C15.5556 18.9558 15.3921 18.8121 15.2019 18.7131C15.0116 18.6141 14.8001 18.5628 14.5856 18.5635H5.30388Z" stroke="#6B7280" stroke-width="1.98895" stroke-linecap="round" stroke-linejoin="round"/>
</svg>
