<svg width="28" height="28" viewBox="0 0 28 28" fill="none" xmlns="http://www.w3.org/2000/svg">
<path d="M24.8519 12.6721C25.0596 12.5805 25.2359 12.43 25.3588 12.2392C25.4818 12.0483 25.5461 11.8256 25.5438 11.5986C25.5414 11.3716 25.4725 11.1503 25.3456 10.9621C25.2187 10.7738 25.0394 10.627 24.8299 10.5397L14.8856 6.01016C14.5833 5.87226 14.2549 5.8009 13.9226 5.8009C13.5903 5.8009 13.2619 5.87226 12.9596 6.01016L3.01654 10.535C2.80999 10.6255 2.63427 10.7742 2.51088 10.9629C2.38749 11.1517 2.32178 11.3723 2.32178 11.5978C2.32178 11.8233 2.38749 12.0439 2.51088 12.2326C2.63427 12.4214 2.80999 12.5701 3.01654 12.6605L12.9596 17.1947C13.2619 17.3326 13.5903 17.4039 13.9226 17.4039C14.2549 17.4039 14.5833 17.3326 14.8856 17.1947L24.8519 12.6721Z" stroke="#6B7280" stroke-width="1.74033" stroke-linecap="round" stroke-linejoin="round"/>
<path d="M25.5249 11.6024V18.5637" stroke="#6B7280" stroke-width="1.74033" stroke-linecap="round" stroke-linejoin="round"/>
<path d="M6.96143 14.5028V18.5636C6.96143 19.4867 7.69485 20.372 9.00035 21.0248C10.3059 21.6775 12.0765 22.0442 13.9228 22.0442C15.769 22.0442 17.5397 21.6775 18.8452 21.0248C20.1507 20.372 20.8841 19.4867 20.8841 18.5636V14.5028" stroke="#6B7280" stroke-width="1.74033" stroke-linecap="round" stroke-linejoin="round"/>
</svg>
