<svg width="28" height="28" viewBox="0 0 28 28" fill="none" xmlns="http://www.w3.org/2000/svg">
<path d="M20.884 5.80115C21.4995 5.80115 22.0897 6.04562 22.5248 6.48079C22.96 6.91596 23.2045 7.50617 23.2045 8.12159V18.0136C23.2043 18.375 23.2885 18.7313 23.4504 19.0544L24.6896 21.5221C24.779 21.6996 24.8214 21.8971 24.8125 22.0957C24.8037 22.2943 24.7441 22.4873 24.6392 22.6561C24.5344 22.825 24.388 22.9641 24.2139 23.0601C24.0399 23.1562 23.8441 23.2059 23.6454 23.2045H4.20006C4.0013 23.2059 3.80552 23.1562 3.63149 23.0601C3.45746 22.9641 3.31101 22.825 3.20619 22.6561C3.10137 22.4873 3.04169 22.2943 3.03288 22.0957C3.02407 21.8971 3.06642 21.6996 3.15586 21.5221L4.39498 19.0544C4.55688 18.7313 4.6411 18.375 4.64095 18.0136V8.12159C4.64095 7.50617 4.88542 6.91596 5.32059 6.48079C5.75575 6.04562 6.34597 5.80115 6.96139 5.80115H20.884Z" stroke="#6B7280" stroke-width="1.74033" stroke-linecap="round" stroke-linejoin="round"/>
<path d="M23.2672 18.5485H4.57837" stroke="#6B7280" stroke-width="1.74033" stroke-linecap="round" stroke-linejoin="round"/>
</svg>
