<svg width="28" height="28" viewBox="0 0 28 28" fill="none" xmlns="http://www.w3.org/2000/svg">
<path d="M20.8838 24.3648C20.8838 21.9031 19.906 19.5422 18.1653 17.8016C16.4246 16.0609 14.0638 15.083 11.6021 15.083C9.1404 15.083 6.77955 16.0609 5.03888 17.8016C3.29821 19.5422 2.32031 21.9031 2.32031 24.3648" stroke="#6B7280" stroke-width="1.74033" stroke-linecap="round" stroke-linejoin="round"/>
<path d="M11.6021 15.0829C14.806 15.0829 17.4032 12.4857 17.4032 9.28182C17.4032 6.07796 14.806 3.48071 11.6021 3.48071C8.39827 3.48071 5.80103 6.07796 5.80103 9.28182C5.80103 12.4857 8.39827 15.0829 11.6021 15.0829Z" stroke="#6B7280" stroke-width="1.74033" stroke-linecap="round" stroke-linejoin="round"/>
<path d="M25.5248 23.2044C25.5248 19.2945 23.2044 15.663 20.8839 13.9227C21.6467 13.3504 22.2566 12.599 22.6597 11.7348C23.0628 10.8707 23.2467 9.92046 23.1951 8.96831C23.1435 8.01615 22.8579 7.0914 22.3637 6.2759C21.8696 5.46039 21.182 4.77928 20.3618 4.29285" stroke="#6B7280" stroke-width="1.74033" stroke-linecap="round" stroke-linejoin="round"/>
</svg>
