<svg width="28" height="28" viewBox="0 0 28 28" fill="none" xmlns="http://www.w3.org/2000/svg">
<path d="M11.6023 2.32043V4.64088" stroke="#6B7280" stroke-width="1.74033" stroke-linecap="round" stroke-linejoin="round"/>
<path d="M16.2429 2.32043V4.64088" stroke="#6B7280" stroke-width="1.74033" stroke-linecap="round" stroke-linejoin="round"/>
<path d="M18.5633 9.28174C18.8711 9.28174 19.1662 9.40398 19.3837 9.62156C19.6013 9.83914 19.7236 10.1342 19.7236 10.442V19.7237C19.7236 20.9546 19.2346 22.135 18.3643 23.0053C17.4939 23.8757 16.3135 24.3646 15.0827 24.3646H8.12135C6.89051 24.3646 5.71009 23.8757 4.83975 23.0053C3.96942 22.135 3.48047 20.9546 3.48047 19.7237V10.442C3.48047 10.1342 3.60271 9.83914 3.82029 9.62156C4.03787 9.40398 4.33298 9.28174 4.64069 9.28174H20.8838C22.1146 9.28174 23.295 9.77069 24.1654 10.641C25.0357 11.5114 25.5247 12.6918 25.5247 13.9226C25.5247 15.1535 25.0357 16.3339 24.1654 17.2042C23.295 18.0746 22.1146 18.5635 20.8838 18.5635H19.7236" stroke="#6B7280" stroke-width="1.74033" stroke-linecap="round" stroke-linejoin="round"/>
<path d="M6.96118 2.32043V4.64088" stroke="#6B7280" stroke-width="1.74033" stroke-linecap="round" stroke-linejoin="round"/>
</svg>
