<svg width="32" height="32" viewBox="0 0 32 32" fill="none" xmlns="http://www.w3.org/2000/svg">
<path d="M15.9134 29.1712C23.2365 29.1712 29.173 23.2346 29.173 15.9115C29.173 8.58841 23.2365 2.65186 15.9134 2.65186C8.59024 2.65186 2.65369 8.58841 2.65369 15.9115C2.65369 23.2346 8.59024 29.1712 15.9134 29.1712Z" stroke="#6B7280" stroke-width="1.98895" stroke-linecap="round" stroke-linejoin="round"/>
<path d="M15.9121 23.8677C20.306 23.8677 23.8679 20.3057 23.8679 15.9119C23.8679 11.518 20.306 7.95605 15.9121 7.95605C11.5182 7.95605 7.9563 11.518 7.9563 15.9119C7.9563 20.3057 11.5182 23.8677 15.9121 23.8677Z" stroke="#6B7280" stroke-width="1.98895" stroke-linecap="round" stroke-linejoin="round"/>
<path d="M15.9108 18.5639C17.3755 18.5639 18.5628 17.3766 18.5628 15.9119C18.5628 14.4473 17.3755 13.26 15.9108 13.26C14.4462 13.26 13.2589 14.4473 13.2589 15.9119C13.2589 17.3766 14.4462 18.5639 15.9108 18.5639Z" stroke="#6B7280" stroke-width="1.98895" stroke-linecap="round" stroke-linejoin="round"/>
</svg>
