<svg width="32" height="32" viewBox="0 0 32 32" fill="none" xmlns="http://www.w3.org/2000/svg">
<path d="M13.2589 19.4385V21.5945C13.2539 22.0488 13.1323 22.4942 12.9056 22.888C12.679 23.2818 12.355 23.6107 11.9648 23.8433C11.1362 24.457 10.4622 25.2555 9.99635 26.1753C9.53046 27.0951 9.28553 28.1109 9.28101 29.1419" stroke="white" stroke-width="1.98895" stroke-linecap="round" stroke-linejoin="round"/>
<path d="M18.5652 19.4385V21.5945C18.5702 22.0488 18.6918 22.4942 18.9184 22.888C19.1451 23.2818 19.469 23.6107 19.8593 23.8433C20.6879 24.457 21.3619 25.2555 21.8277 26.1753C22.2936 27.0951 22.5386 28.1109 22.5431 29.1419" stroke="white" stroke-width="1.98895" stroke-linecap="round" stroke-linejoin="round"/>
<path d="M23.8679 11.934H25.8569C26.736 11.934 27.5792 11.5848 28.2009 10.9631C28.8225 10.3414 29.1718 9.49829 29.1718 8.61912C29.1718 7.73995 28.8225 6.89678 28.2009 6.27512C27.5792 5.65345 26.736 5.3042 25.8569 5.3042H23.8679" stroke="white" stroke-width="1.98895" stroke-linecap="round" stroke-linejoin="round"/>
<path d="M5.30298 29.1716H26.5184" stroke="white" stroke-width="1.98895" stroke-linecap="round" stroke-linejoin="round"/>
<path d="M7.9563 11.9336C7.9563 14.0436 8.7945 16.0672 10.2865 17.5592C11.7785 19.0512 13.8021 19.8894 15.9121 19.8894C18.0221 19.8894 20.0457 19.0512 21.5377 17.5592C23.0297 16.0672 23.8679 14.0436 23.8679 11.9336V3.97782C23.8679 3.62615 23.7282 3.28889 23.4795 3.04022C23.2309 2.79156 22.8936 2.65186 22.5419 2.65186H9.28227C8.9306 2.65186 8.59333 2.79156 8.34467 3.04022C8.096 3.28889 7.9563 3.62615 7.9563 3.97782V11.9336Z" stroke="white" stroke-width="1.98895" stroke-linecap="round" stroke-linejoin="round"/>
<path d="M7.95768 11.934H5.96873C5.08955 11.934 4.24639 11.5848 3.62473 10.9631C3.00306 10.3414 2.65381 9.49829 2.65381 8.61912C2.65381 7.73995 3.00306 6.89678 3.62473 6.27512C4.24639 5.65345 5.08955 5.3042 5.96873 5.3042H7.95768" stroke="white" stroke-width="1.98895" stroke-linecap="round" stroke-linejoin="round"/>
</svg>
