<svg width="56" height="56" viewBox="0 0 56 56" fill="none" xmlns="http://www.w3.org/2000/svg">
<path d="M34.8067 4.64087H13.9227C12.6919 4.64087 11.5115 5.12982 10.6411 6.00015C9.7708 6.87049 9.28185 8.05091 9.28185 9.28175V46.4088C9.28185 47.6397 9.7708 48.8201 10.6411 49.6904C11.5115 50.5608 12.6919 51.0497 13.9227 51.0497H41.768C42.9989 51.0497 44.1793 50.5608 45.0496 49.6904C45.92 48.8201 46.4089 47.6397 46.4089 46.4088V16.2431L34.8067 4.64087Z" stroke="white" stroke-width="3.48066" stroke-linecap="round" stroke-linejoin="round"/>
<path d="M32.4869 4.64087V13.9226C32.4869 15.1535 32.9759 16.3339 33.8462 17.2042C34.7165 18.0746 35.897 18.5635 37.1278 18.5635H46.4096" stroke="white" stroke-width="3.48066" stroke-linecap="round" stroke-linejoin="round"/>
<path d="M23.2052 20.884H18.5643" stroke="white" stroke-width="3.48066" stroke-linecap="round" stroke-linejoin="round"/>
<path d="M37.1278 30.1658H18.5643" stroke="white" stroke-width="3.48066" stroke-linecap="round" stroke-linejoin="round"/>
<path d="M37.1278 39.4475H18.5643" stroke="white" stroke-width="3.48066" stroke-linecap="round" stroke-linejoin="round"/>
</svg>
