<svg width="56" height="56" viewBox="0 0 56 56" fill="none" xmlns="http://www.w3.org/2000/svg">
<path d="M51.0505 39.4475C51.0505 40.6783 50.5615 41.8588 49.6912 42.7291C48.8208 43.5994 47.6404 44.0884 46.4096 44.0884H15.8447C14.614 44.0886 13.4337 44.5778 12.5636 45.4482L7.45399 50.5578C7.22358 50.7881 6.93004 50.945 6.61049 51.0086C6.29093 51.0721 5.9597 51.0395 5.65868 50.9148C5.35767 50.7901 5.10037 50.579 4.91934 50.3081C4.73831 50.0372 4.64166 49.7187 4.64162 49.3929V11.6022C4.64162 10.3713 5.13057 9.19092 6.0009 8.32059C6.87123 7.45025 8.05166 6.9613 9.2825 6.9613H46.4096C47.6404 6.9613 48.8208 7.45025 49.6912 8.32059C50.5615 9.19092 51.0505 10.3713 51.0505 11.6022V39.4475Z" stroke="white" stroke-width="3.48066" stroke-linecap="round" stroke-linejoin="round"/>
</svg>
