<svg width="56" height="56" viewBox="0 0 56 56" fill="none" xmlns="http://www.w3.org/2000/svg">
<path d="M34.1113 14.619C33.6862 15.0528 33.448 15.636 33.448 16.2433C33.448 16.8507 33.6862 17.4339 34.1113 17.8677L37.824 21.5804C38.2578 22.0055 38.841 22.2437 39.4483 22.2437C40.0557 22.2437 40.6389 22.0055 41.0726 21.5804L48.2799 14.3754C49.0225 13.6282 50.2825 13.8649 50.5609 14.8812C51.262 17.4311 51.2224 20.1279 50.4467 22.6561C49.671 25.1843 48.1913 27.4393 46.1808 29.1572C44.1703 30.8751 41.7121 31.9849 39.0939 32.3566C36.4757 32.7284 33.8057 32.3469 31.3964 31.2566L13.0417 49.6113C12.1186 50.5341 10.8667 51.0524 9.56138 51.0522C8.2561 51.052 7.00436 50.5333 6.08154 49.6101C5.15872 48.687 4.64041 47.4351 4.64063 46.1298C4.64084 44.8245 5.15957 43.5728 6.0827 42.65L24.4374 24.2953C23.3471 21.886 22.9656 19.216 23.3374 16.5978C23.7092 13.9796 24.8189 11.5214 26.5368 9.51085C28.2548 7.50034 30.5097 6.02066 33.0379 5.24497C35.5661 4.46928 38.2629 4.42966 40.8128 5.13075C41.8291 5.4092 42.0658 6.66688 41.3209 7.41406L34.1113 14.619Z" stroke="white" stroke-width="3.48066" stroke-linecap="round" stroke-linejoin="round"/>
</svg>
