<svg width="32" height="32" viewBox="0 0 32 32" fill="none" xmlns="http://www.w3.org/2000/svg">
<path d="M21.2154 27.8454V25.1935C21.2154 23.7868 20.6566 22.4378 19.6619 21.4431C18.6673 20.4484 17.3182 19.8896 15.9115 19.8896H7.95572C6.54905 19.8896 5.19999 20.4484 4.20532 21.4431C3.21065 22.4378 2.65186 23.7868 2.65186 25.1935V27.8454" stroke="#6B7280" stroke-width="1.98895" stroke-linecap="round" stroke-linejoin="round"/>
<path d="M21.2168 4.14648C22.3542 4.44134 23.3614 5.10551 24.0805 6.03474C24.7995 6.96398 25.1897 8.10567 25.1897 9.28063C25.1897 10.4556 24.7995 11.5973 24.0805 12.5265C23.3614 13.4557 22.3542 14.1199 21.2168 14.4148" stroke="#6B7280" stroke-width="1.98895" stroke-linecap="round" stroke-linejoin="round"/>
<path d="M29.1722 27.8459V25.194C29.1714 24.0188 28.7802 22.8772 28.0602 21.9484C27.3402 21.0197 26.3322 20.3563 25.1943 20.0625" stroke="#6B7280" stroke-width="1.98895" stroke-linecap="round" stroke-linejoin="round"/>
<path d="M11.9338 14.5853C14.863 14.5853 17.2376 12.2107 17.2376 9.28141C17.2376 6.35216 14.863 3.97754 11.9338 3.97754C9.0045 3.97754 6.62988 6.35216 6.62988 9.28141C6.62988 12.2107 9.0045 14.5853 11.9338 14.5853Z" stroke="#6B7280" stroke-width="1.98895" stroke-linecap="round" stroke-linejoin="round"/>
</svg>
