<svg width="32" height="32" viewBox="0 0 32 32" fill="none" xmlns="http://www.w3.org/2000/svg">
<path d="M26.5206 17.2376C26.5206 23.8674 21.8798 27.1824 16.3637 29.105C16.0749 29.2029 15.7611 29.1982 15.4753 29.0917C9.94606 27.1824 5.30518 23.8674 5.30518 17.2376V7.95583C5.30518 7.60416 5.44488 7.2669 5.69354 7.01823C5.94221 6.76956 6.27947 6.62986 6.63114 6.62986C9.28308 6.62986 12.598 5.0387 14.9052 3.02323C15.1861 2.78323 15.5434 2.65137 15.9129 2.65137C16.2824 2.65137 16.6397 2.78323 16.9206 3.02323C19.2411 5.05196 22.5427 6.62986 25.1947 6.62986C25.5463 6.62986 25.8836 6.76956 26.1323 7.01823C26.3809 7.2669 26.5206 7.60416 26.5206 7.95583V17.2376Z" stroke="#6B7280" stroke-width="1.98895" stroke-linecap="round" stroke-linejoin="round"/>
</svg>
