<svg width="28" height="28" viewBox="0 0 28 28" fill="none" xmlns="http://www.w3.org/2000/svg">
<path d="M4.6416 13.9249C4.6416 9.54873 4.6416 7.36063 6.00111 6.00111C7.36063 4.6416 9.54873 4.6416 13.9249 4.6416C18.3011 4.6416 20.4893 4.6416 21.8487 6.00111C23.2083 7.36063 23.2083 9.54873 23.2083 13.9249C23.2083 18.3011 23.2083 20.4893 21.8487 21.8487C20.4893 23.2083 18.3011 23.2083 13.9249 23.2083C9.54873 23.2083 7.36063 23.2083 6.00111 21.8487C4.6416 20.4893 4.6416 18.3011 4.6416 13.9249Z" stroke="#6B7280" stroke-width="1.5" stroke-linejoin="round"/>
<path d="M8.70312 17.4063L10.8405 10.9943C10.9501 10.6656 11.2577 10.4438 11.6042 10.4438C11.9507 10.4438 12.2583 10.6656 12.3678 10.9943L14.5052 17.4063M9.86354 15.0855H13.3448" stroke="#6B7280" stroke-width="1.5" stroke-linecap="round" stroke-linejoin="round"/>
<path d="M17.9863 10.4438V17.4063" stroke="#6B7280" stroke-width="1.5" stroke-linecap="round" stroke-linejoin="round"/>
<path d="M9.2833 2.3208V4.64163M18.5666 2.3208V4.64163M13.925 2.3208V4.64163M9.2833 23.2083V25.5291M13.925 23.2083V25.5291M18.5666 23.2083V25.5291M25.5291 18.5666H23.2083M4.64163 9.2833H2.3208M4.64163 18.5666H2.3208M4.64163 13.925H2.3208M25.5291 9.2833H23.2083M25.5291 13.925H23.2083" stroke="#6B7280" stroke-width="1.5" stroke-linecap="round" stroke-linejoin="round"/>
</svg>
