<svg width="28" height="28" viewBox="0 0 28 28" fill="none" xmlns="http://www.w3.org/2000/svg">
<path d="M23.2048 2.32056H4.64124C3.3597 2.32056 2.3208 3.35945 2.3208 4.641V9.28188C2.3208 10.5634 3.3597 11.6023 4.64124 11.6023H23.2048C24.4863 11.6023 25.5252 10.5634 25.5252 9.28188V4.641C25.5252 3.35945 24.4863 2.32056 23.2048 2.32056Z" stroke="#6B7280" stroke-width="1.74033" stroke-linecap="round" stroke-linejoin="round"/>
<path d="M23.2048 16.2432H4.64124C3.3597 16.2432 2.3208 17.2821 2.3208 18.5636V23.2045C2.3208 24.486 3.3597 25.5249 4.64124 25.5249H23.2048C24.4863 25.5249 25.5252 24.486 25.5252 23.2045V18.5636C25.5252 17.2821 24.4863 16.2432 23.2048 16.2432Z" stroke="#6B7280" stroke-width="1.74033" stroke-linecap="round" stroke-linejoin="round"/>
<path d="M6.96143 6.96143H6.97309" stroke="#6B7280" stroke-width="1.74033" stroke-linecap="round" stroke-linejoin="round"/>
<path d="M6.96143 20.884H6.97309" stroke="#6B7280" stroke-width="1.74033" stroke-linecap="round" stroke-linejoin="round"/>
</svg>
