<svg width="28" height="28" viewBox="0 0 28 28" fill="none" xmlns="http://www.w3.org/2000/svg">
<path d="M14.0002 25.6666C9.3254 25.6666 6.98802 25.6666 5.53576 24.129C4.0835 22.5913 4.0835 20.1163 4.0835 15.1666C4.0835 10.2169 4.0835 7.74201 5.53576 6.20432C6.98802 4.66663 9.3254 4.66663 14.0002 4.66663C18.6749 4.66663 21.0123 4.66663 22.4646 6.20432C23.9168 7.74201 23.9168 10.2169 23.9168 15.1666C23.9168 20.1163 23.9168 22.5913 22.4646 24.129C21.0123 25.6666 18.6749 25.6666 14.0002 25.6666Z" stroke="white" stroke-width="1.7" stroke-linecap="round" stroke-linejoin="round"/>
<path d="M9.3335 4.66671V2.33337" stroke="white" stroke-width="1.7" stroke-linecap="round"/>
<path d="M18.6665 4.66671V2.33337" stroke="white" stroke-width="1.7" stroke-linecap="round"/>
<path d="M16.3545 11.0747C16.3545 12.3634 15.3099 13.408 14.0213 13.408C12.7326 13.408 11.688 12.3634 11.688 11.0747C11.688 9.78609 12.7326 8.74146 14.0213 8.74146C15.3099 8.74146 16.3545 9.78609 16.3545 11.0747Z" stroke="white" stroke-width="1.7" stroke-linecap="round" stroke-linejoin="round"/>
<path d="M9.40697 19.5021C10.6417 17.6012 12.6025 16.8889 14.0213 16.8903C15.4399 16.8918 17.3434 17.6012 18.578 19.5021C18.6578 19.625 18.6799 19.7764 18.6078 19.9041C18.319 20.4162 17.4225 21.4322 16.775 21.5012C16.0309 21.5803 14.0845 21.5913 14.0228 21.5917C13.961 21.5913 11.9545 21.5803 11.2101 21.5012C10.5625 21.4322 9.66595 20.4162 9.37719 19.9041C9.30515 19.7764 9.32715 19.625 9.40697 19.5021Z" stroke="white" stroke-width="1.7" stroke-linecap="round" stroke-linejoin="round"/>
</svg>
