<svg width="24" height="24" viewBox="0 0 24 24" fill="none" xmlns="http://www.w3.org/2000/svg">
<path d="M19.8896 12.9282C19.8896 17.9006 16.409 20.3868 12.272 21.8288C12.0553 21.9022 11.82 21.8986 11.6057 21.8188C7.45869 20.3868 3.97803 17.9006 3.97803 12.9282V5.96687C3.97803 5.70312 4.0828 5.45017 4.2693 5.26367C4.4558 5.07717 4.70875 4.9724 4.9725 4.9724C6.96145 4.9724 9.44764 3.77903 11.178 2.26743C11.3887 2.08742 11.6567 1.98853 11.9338 1.98853C12.2109 1.98853 12.4789 2.08742 12.6896 2.26743C14.43 3.78897 16.9062 4.9724 18.8952 4.9724C19.1589 4.9724 19.4119 5.07717 19.5984 5.26367C19.7849 5.45017 19.8896 5.70312 19.8896 5.96687V12.9282Z" stroke="white" stroke-width="1.98895" stroke-linecap="round" stroke-linejoin="round"/>
</svg>
