<svg width="28" height="28" viewBox="0 0 28 28" fill="none" xmlns="http://www.w3.org/2000/svg">
<path d="M22.6537 18.3322C27.2628 12.4878 26.0176 6.69093 22.7065 4.65984C19.5779 2.74077 16.8473 3.51413 15.207 4.74601L13.9999 5.64851M22.6537 18.3322C21.5473 19.7349 20.1038 21.1405 18.2707 22.4973C16.4668 23.8324 15.5649 24.5 14.0002 24.5C12.4354 24.5 11.5335 23.8324 9.72961 22.4973C0.258835 15.4874 1.18791 7.17842 5.29384 4.65984C8.42243 2.74077 11.1531 3.51413 12.7934 4.74601L13.9999 5.64851M22.6537 18.3322L16.2076 11.0189C15.9437 10.7196 15.502 10.6551 15.1636 10.8666L12.6131 12.4607C11.7156 13.0216 10.5507 12.8954 9.79421 12.1552C8.79493 11.1774 8.89575 9.54064 10.0075 8.6929L13.9999 5.64851" stroke="black" stroke-width="1.7" stroke-linecap="round" stroke-linejoin="round"/>
</svg>
