<svg width="24" height="24" viewBox="0 0 24 24" fill="none" xmlns="http://www.w3.org/2000/svg">
<path d="M3.97785 13.9224C3.78966 13.923 3.60515 13.8702 3.44576 13.7702C3.28636 13.6702 3.15863 13.5269 3.0774 13.3572C2.99617 13.1874 2.96477 12.9981 2.98685 12.8112C3.00894 12.6243 3.0836 12.4475 3.20216 12.3014L13.0475 2.15773C13.1213 2.07249 13.222 2.01488 13.3329 1.99438C13.4438 1.97387 13.5583 1.99167 13.6578 2.04487C13.7573 2.09806 13.8357 2.18349 13.8802 2.28712C13.9247 2.39076 13.9326 2.50645 13.9027 2.61519L11.9933 8.60193C11.937 8.75262 11.9181 8.91472 11.9382 9.07432C11.9583 9.23392 12.0168 9.38626 12.1088 9.51827C12.2007 9.65028 12.3233 9.75803 12.466 9.83226C12.6087 9.90649 12.7673 9.945 12.9281 9.94448H19.8894C20.0776 9.94383 20.2621 9.9966 20.4215 10.0967C20.5809 10.1967 20.7087 10.3399 20.7899 10.5097C20.8711 10.6794 20.9025 10.8688 20.8804 11.0556C20.8584 11.2425 20.7837 11.4193 20.6651 11.5655L10.8198 21.7091C10.746 21.7944 10.6453 21.852 10.5344 21.8725C10.4235 21.893 10.3089 21.8752 10.2095 21.822C10.11 21.7688 10.0316 21.6834 9.98713 21.5797C9.94262 21.4761 9.93468 21.3604 9.96459 21.2517L11.874 15.2649C11.9303 15.1142 11.9492 14.9521 11.9291 14.7925C11.909 14.6329 11.8505 14.4806 11.7585 14.3486C11.6666 14.2166 11.544 14.1088 11.4013 14.0346C11.2586 13.9604 11.1 13.9219 10.9392 13.9224H3.97785Z" stroke="white" stroke-width="1.98895" stroke-linecap="round" stroke-linejoin="round"/>
</svg>
