<svg width="24" height="24" viewBox="0 0 24 24" fill="none" xmlns="http://www.w3.org/2000/svg">
<path d="M15.9114 20.8841V18.8951C15.9114 17.8401 15.4923 16.8283 14.7463 16.0823C14.0003 15.3363 12.9885 14.9172 11.9335 14.9172H5.96667C4.91167 14.9172 3.89987 15.3363 3.15387 16.0823C2.40787 16.8283 1.98877 17.8401 1.98877 18.8951V20.8841" stroke="white" stroke-width="1.98895" stroke-linecap="round" stroke-linejoin="round"/>
<path d="M15.9116 3.1106C16.7646 3.33174 17.5201 3.82986 18.0594 4.52679C18.5987 5.22372 18.8913 6.07999 18.8913 6.9612C18.8913 7.84242 18.5987 8.69869 18.0594 9.39562C17.5201 10.0925 16.7646 10.5907 15.9116 10.8118" stroke="white" stroke-width="1.98895" stroke-linecap="round" stroke-linejoin="round"/>
<path d="M21.8784 20.884V18.895C21.8778 18.0136 21.5844 17.1574 21.0444 16.4608C20.5045 15.7643 19.7484 15.2667 18.895 15.0464" stroke="white" stroke-width="1.98895" stroke-linecap="round" stroke-linejoin="round"/>
<path d="M8.95056 10.9392C11.1475 10.9392 12.9285 9.15823 12.9285 6.9613C12.9285 4.76437 11.1475 2.9834 8.95056 2.9834C6.75362 2.9834 4.97266 4.76437 4.97266 6.9613C4.97266 9.15823 6.75362 10.9392 8.95056 10.9392Z" stroke="white" stroke-width="1.98895" stroke-linecap="round" stroke-linejoin="round"/>
</svg>
