<svg width="64" height="64" viewBox="0 0 64 64" fill="none" xmlns="http://www.w3.org/2000/svg">
<path d="M42.4313 7.95605C41.0246 7.95605 39.6756 8.51485 38.6809 9.50952C37.6862 10.5042 37.1274 11.8532 37.1274 13.2599V29.1715C37.1274 30.5782 37.6862 31.9273 38.6809 32.9219C39.6756 33.9166 41.0246 34.4754 42.4313 34.4754C43.1346 34.4754 43.8092 34.7548 44.3065 35.2521C44.8038 35.7495 45.0832 36.424 45.0832 37.1273V39.7793C45.0832 41.1859 44.5244 42.535 43.5298 43.5297C42.5351 44.5243 41.186 45.0831 39.7794 45.0831C39.076 45.0831 38.4015 45.3625 37.9042 45.8599C37.4068 46.3572 37.1274 47.0317 37.1274 47.7351V53.0389C37.1274 53.7423 37.4068 54.4168 37.9042 54.9141C38.4015 55.4115 39.076 55.6909 39.7794 55.6909C43.9994 55.6909 48.0466 54.0145 51.0306 51.0305C54.0146 48.0465 55.691 43.9993 55.691 39.7793V13.2599C55.691 11.8532 55.1322 10.5042 54.1375 9.50952C53.1428 8.51485 51.7938 7.95605 50.3871 7.95605H42.4313Z" fill="#6B7280" stroke="#6B7280" stroke-width="5.30387" stroke-linecap="round" stroke-linejoin="round"/>
<path d="M13.2594 7.95605C11.8528 7.95605 10.5037 8.51485 9.50903 9.50952C8.51436 10.5042 7.95557 11.8532 7.95557 13.2599V29.1715C7.95557 30.5782 8.51436 31.9273 9.50903 32.9219C10.5037 33.9166 11.8528 34.4754 13.2594 34.4754C13.9628 34.4754 14.6373 34.7548 15.1346 35.2521C15.632 35.7495 15.9114 36.424 15.9114 37.1273V39.7793C15.9114 41.1859 15.3526 42.535 14.3579 43.5297C13.3632 44.5243 12.0142 45.0831 10.6075 45.0831C9.90416 45.0831 9.22963 45.3625 8.7323 45.8599C8.23497 46.3572 7.95557 47.0317 7.95557 47.7351V53.0389C7.95557 53.7423 8.23497 54.4168 8.7323 54.9141C9.22963 55.4115 9.90416 55.6909 10.6075 55.6909C14.8275 55.6909 18.8747 54.0145 21.8587 51.0305C24.8427 48.0465 26.5191 43.9993 26.5191 39.7793V13.2599C26.5191 11.8532 25.9603 10.5042 24.9656 9.50952C23.971 8.51485 22.6219 7.95605 21.2152 7.95605H13.2594Z" fill="#6B7280" stroke="#6B7280" stroke-width="5.30387" stroke-linecap="round" stroke-linejoin="round"/>
</svg>
