<svg width="28" height="28" viewBox="0 0 28 28" fill="none" xmlns="http://www.w3.org/2000/svg">
<path d="M20.3041 22.0444H10.4422C8.9361 22.044 7.45975 21.6248 6.17815 20.8336C4.89655 20.0425 3.86019 18.9105 3.18489 17.5643C2.50958 16.2181 2.22193 14.7106 2.35408 13.2102C2.48623 11.7099 3.03297 10.2759 3.9332 9.06843C4.83344 7.86096 6.05171 6.92761 7.45187 6.37266C8.85203 5.81772 10.3789 5.66306 11.8619 5.92595C13.3449 6.18885 14.7256 6.85895 15.8497 7.86137C16.9738 8.86379 17.797 10.159 18.2273 11.6024H20.3041C21.6888 11.6024 23.0168 12.1524 23.9959 13.1316C24.975 14.1107 25.5251 15.4387 25.5251 16.8234C25.5251 18.2081 24.975 19.536 23.9959 20.5152C23.0168 21.4943 21.6888 22.0444 20.3041 22.0444Z" stroke="#6B7280" stroke-width="1.74033" stroke-linecap="round" stroke-linejoin="round"/>
</svg>
