<svg width="20" height="20" viewBox="0 0 20 20" fill="none" xmlns="http://www.w3.org/2000/svg">
<path d="M9.5509 1.90161C9.58722 1.82824 9.64332 1.76647 9.71288 1.72329C9.78243 1.68011 9.86268 1.65723 9.94455 1.65723C10.0264 1.65723 10.1067 1.68011 10.1762 1.72329C10.2458 1.76647 10.3019 1.82824 10.3382 1.90161L12.2526 5.77924C12.3787 6.03446 12.5648 6.25527 12.7951 6.42271C13.0253 6.59015 13.2927 6.69922 13.5744 6.74056L17.8556 7.36708C17.9367 7.37884 18.0129 7.41305 18.0756 7.46587C18.1383 7.51868 18.185 7.58798 18.2103 7.66593C18.2357 7.74388 18.2387 7.82736 18.2191 7.90695C18.1994 7.98653 18.1579 8.05903 18.0992 8.11625L15.0031 11.1312C14.7989 11.3302 14.6462 11.5758 14.5579 11.8469C14.4697 12.118 14.4487 12.4065 14.4968 12.6875L15.2277 16.9472C15.242 17.0283 15.2333 17.1117 15.2024 17.1881C15.1716 17.2644 15.1199 17.3306 15.0533 17.379C14.9867 17.4273 14.9078 17.456 14.8257 17.4617C14.7435 17.4675 14.6614 17.45 14.5887 17.4113L10.7617 15.3991C10.5095 15.2667 10.2289 15.1975 9.94413 15.1975C9.65932 15.1975 9.37876 15.2667 9.12659 15.3991L5.30035 17.4113C5.22769 17.4497 5.1457 17.467 5.0637 17.4612C4.9817 17.4554 4.90299 17.4267 4.8365 17.3783C4.77002 17.33 4.71844 17.2639 4.68763 17.1877C4.65682 17.1115 4.64802 17.0282 4.66223 16.9472L5.39234 12.6884C5.44057 12.4072 5.41967 12.1185 5.33146 11.8472C5.24324 11.5759 5.09035 11.3302 4.88598 11.1312L1.78985 8.11708C1.73067 8.05993 1.68874 7.9873 1.66882 7.90748C1.64891 7.82765 1.65181 7.74384 1.67721 7.66558C1.7026 7.58733 1.74946 7.51778 1.81245 7.46486C1.87545 7.41194 1.95204 7.37777 2.0335 7.36625L6.31388 6.74056C6.59586 6.69954 6.86365 6.59061 7.0942 6.42315C7.32475 6.25569 7.51115 6.03471 7.63736 5.77924L9.5509 1.90161Z" fill="#6B7280" stroke="#6B7280" stroke-width="1.65746" stroke-linecap="round" stroke-linejoin="round"/>
</svg>
