<svg width="28" height="28" viewBox="0 0 28 28" fill="none" xmlns="http://www.w3.org/2000/svg">
<path d="M13.9225 25.5249C10.8454 25.5249 7.89436 24.3025 5.71852 22.1266C3.54268 19.9508 2.32031 16.9997 2.32031 13.9226C2.32031 10.8455 3.54268 7.89448 5.71852 5.71864C7.89436 3.54281 10.8454 2.32043 13.9225 2.32043C16.9996 2.32043 19.9507 3.42057 22.1265 5.37882C24.3024 7.33707 25.5247 9.99304 25.5247 12.7624C25.5247 14.301 24.9135 15.7765 23.8256 16.8644C22.7377 17.9523 21.2622 18.5635 19.7236 18.5635H17.1131C16.7361 18.5635 16.3664 18.6685 16.0457 18.8668C15.7249 19.065 15.4657 19.3486 15.2971 19.6859C15.1285 20.0232 15.0571 20.4007 15.0909 20.7763C15.1248 21.1518 15.2626 21.5105 15.4888 21.8121L15.8369 22.2762C16.0631 22.5779 16.2009 22.9366 16.2348 23.3121C16.2686 23.6877 16.1972 24.0652 16.0286 24.4025C15.86 24.7397 15.6008 25.0234 15.28 25.2216C14.9593 25.4199 14.5896 25.5249 14.2126 25.5249H13.9225Z" stroke="#6B7280" stroke-width="1.74033" stroke-linecap="round" stroke-linejoin="round"/>
<path d="M15.6626 8.12152C15.983 8.12152 16.2427 7.8618 16.2427 7.54141C16.2427 7.22103 15.983 6.9613 15.6626 6.9613C15.3422 6.9613 15.0825 7.22103 15.0825 7.54141C15.0825 7.8618 15.3422 8.12152 15.6626 8.12152Z" fill="#6B7280" stroke="#6B7280" stroke-width="1.74033" stroke-linecap="round" stroke-linejoin="round"/>
<path d="M20.3037 12.7623C20.6241 12.7623 20.8839 12.5025 20.8839 12.1822C20.8839 11.8618 20.6241 11.6021 20.3037 11.6021C19.9834 11.6021 19.7236 11.8618 19.7236 12.1822C19.7236 12.5025 19.9834 12.7623 20.3037 12.7623Z" fill="#6B7280" stroke="#6B7280" stroke-width="1.74033" stroke-linecap="round" stroke-linejoin="round"/>
<path d="M7.54154 15.0828C7.86192 15.0828 8.12165 14.8231 8.12165 14.5027C8.12165 14.1823 7.86192 13.9226 7.54154 13.9226C7.22115 13.9226 6.96143 14.1823 6.96143 14.5027C6.96143 14.8231 7.22115 15.0828 7.54154 15.0828Z" fill="#6B7280" stroke="#6B7280" stroke-width="1.74033" stroke-linecap="round" stroke-linejoin="round"/>
<path d="M9.86185 9.28168C10.1822 9.28168 10.442 9.02196 10.442 8.70157C10.442 8.38118 10.1822 8.12146 9.86185 8.12146C9.54146 8.12146 9.28174 8.38118 9.28174 8.70157C9.28174 9.02196 9.54146 9.28168 9.86185 9.28168Z" fill="#6B7280" stroke="#6B7280" stroke-width="1.74033" stroke-linecap="round" stroke-linejoin="round"/>
</svg>
