<svg width="20" height="20" viewBox="0 0 20 20" fill="none" xmlns="http://www.w3.org/2000/svg">
<g clip-path="url(#clip0_261_11256)">
<path d="M12.3623 18.131V14.8344C12.4769 13.8019 12.1809 12.7658 11.5381 11.9498C14.0106 11.9498 16.483 10.3015 16.483 7.417C16.5489 6.38682 16.2605 5.37311 15.6589 4.53248C15.8896 3.5847 15.8896 2.59572 15.6589 1.64795C15.6589 1.64795 14.8347 1.64795 13.1864 2.88418C11.0106 2.4721 8.76896 2.4721 6.5932 2.88418C4.9449 1.64795 4.12075 1.64795 4.12075 1.64795C3.8735 2.59572 3.8735 3.5847 4.12075 4.53248C3.52066 5.36972 3.22941 6.38911 3.2966 7.417C3.2966 10.3015 5.76905 11.9498 8.2415 11.9498C7.92008 12.3537 7.68108 12.8152 7.54097 13.3097C7.40087 13.8042 7.35966 14.3234 7.41735 14.8344V18.131" stroke="#E1E3E6" stroke-width="1.6483" stroke-linecap="round" stroke-linejoin="round"/>
<path d="M7.417 14.8348C3.70008 16.4831 3.29625 13.1865 1.64795 13.1865" stroke="#E1E3E6" stroke-width="1.6483" stroke-linecap="round" stroke-linejoin="round"/>
</g>
<defs>
<clipPath id="clip0_261_11256">
<rect width="19.7796" height="19.7796" fill="white"/>
</clipPath>
</defs>
</svg>
