<svg width="20" height="20" viewBox="0 0 20 20" fill="none" xmlns="http://www.w3.org/2000/svg">
<g clip-path="url(#clip0_261_11248)">
<path d="M13.1866 6.59277C14.4981 6.59277 15.7558 7.11375 16.6832 8.0411C17.6105 8.96845 18.1315 10.2262 18.1315 11.5377V17.3067H14.8349V11.5377C14.8349 11.1005 14.6612 10.6813 14.3521 10.3722C14.043 10.063 13.6238 9.88938 13.1866 9.88938C12.7494 9.88938 12.3302 10.063 12.0211 10.3722C11.712 10.6813 11.5383 11.1005 11.5383 11.5377V17.3067H8.2417V11.5377C8.2417 10.2262 8.76268 8.96845 9.69003 8.0411C10.6174 7.11375 11.8751 6.59277 13.1866 6.59277Z" stroke="#E1E3E6" stroke-width="1.6483" stroke-linecap="round" stroke-linejoin="round"/>
<path d="M4.94553 7.41748H1.64893V17.3073H4.94553V7.41748Z" stroke="#E1E3E6" stroke-width="1.6483" stroke-linecap="round" stroke-linejoin="round"/>
<path d="M3.29723 4.94455C4.20756 4.94455 4.94553 4.20658 4.94553 3.29625C4.94553 2.38592 4.20756 1.64795 3.29723 1.64795C2.3869 1.64795 1.64893 2.38592 1.64893 3.29625C1.64893 4.20658 2.3869 4.94455 3.29723 4.94455Z" stroke="#E1E3E6" stroke-width="1.6483" stroke-linecap="round" stroke-linejoin="round"/>
</g>
<defs>
<clipPath id="clip0_261_11248">
<rect width="19.7796" height="19.7796" fill="white"/>
</clipPath>
</defs>
</svg>
