<svg width="24" height="24" viewBox="0 0 24 24" fill="none" xmlns="http://www.w3.org/2000/svg">
<path d="M19.7797 9.89036C19.7797 14.8283 14.3018 19.971 12.4623 21.5593C12.2909 21.6882 12.0823 21.7579 11.8679 21.7579C11.6535 21.7579 11.4449 21.6882 11.2735 21.5593C9.43402 19.971 3.95605 14.8283 3.95605 9.89036C3.95605 7.79201 4.78962 5.7796 6.27338 4.29584C7.75714 2.81208 9.76955 1.97852 11.8679 1.97852C13.9663 1.97852 15.9787 2.81208 17.4624 4.29584C18.9462 5.7796 19.7797 7.79201 19.7797 9.89036Z" stroke="white" stroke-width="1.97796" stroke-linecap="round" stroke-linejoin="round"/>
<path d="M11.8678 12.8567C13.5064 12.8567 14.8348 11.5284 14.8348 9.88979C14.8348 8.2512 13.5064 6.92285 11.8678 6.92285C10.2292 6.92285 8.90088 8.2512 8.90088 9.88979C8.90088 11.5284 10.2292 12.8567 11.8678 12.8567Z" stroke="white" stroke-width="1.97796" stroke-linecap="round" stroke-linejoin="round"/>
</svg>
