<svg width="20" height="20" viewBox="0 0 20 20" fill="none" xmlns="http://www.w3.org/2000/svg">
<path d="M11.9803 17.8728C12.0116 17.9508 12.0661 18.0174 12.1363 18.0636C12.2066 18.1098 12.2893 18.1334 12.3733 18.1313C12.4574 18.1291 12.5387 18.1013 12.6065 18.0516C12.6743 18.0018 12.7253 17.9325 12.7525 17.853L18.1095 2.19413C18.1359 2.12111 18.1409 2.04208 18.124 1.9663C18.1071 1.89052 18.069 1.82111 18.0141 1.76621C17.9592 1.71131 17.8898 1.67318 17.814 1.65628C17.7382 1.63939 17.6592 1.64442 17.5862 1.67079L1.92733 7.02777C1.84779 7.05505 1.77851 7.106 1.72877 7.17379C1.67903 7.24158 1.65121 7.32296 1.64906 7.40701C1.64691 7.49107 1.67052 7.57377 1.71672 7.64401C1.76293 7.71426 1.82952 7.76869 1.90755 7.8L8.44306 10.4208C8.64967 10.5035 8.83738 10.6272 8.99489 10.7844C9.15239 10.9417 9.27643 11.1292 9.35952 11.3356L11.9803 17.8728Z" stroke="white" stroke-width="1.6483" stroke-linecap="round" stroke-linejoin="round"/>
<path d="M18.0113 1.76953L8.99512 10.7849" stroke="white" stroke-width="1.6483" stroke-linecap="round" stroke-linejoin="round"/>
</svg>
