<svg width="24" height="24" viewBox="0 0 24 24" fill="none" xmlns="http://www.w3.org/2000/svg">
<path d="M13.6792 16.386C13.8834 16.4798 14.1135 16.5012 14.3316 16.4468C14.5496 16.3923 14.7426 16.2652 14.8788 16.0863L15.2299 15.6265C15.4141 15.3808 15.653 15.1814 15.9277 15.0441C16.2023 14.9068 16.5052 14.8353 16.8123 14.8353H19.7792C20.3038 14.8353 20.8069 15.0437 21.1778 15.4146C21.5488 15.7855 21.7572 16.2886 21.7572 16.8132V19.7802C21.7572 20.3048 21.5488 20.8079 21.1778 21.1788C20.8069 21.5497 20.3038 21.7581 19.7792 21.7581C15.0579 21.7581 10.53 19.8826 7.19152 16.5441C3.85307 13.2057 1.97754 8.67777 1.97754 3.95648C1.97754 3.43189 2.18593 2.92879 2.55687 2.55785C2.92781 2.18691 3.43091 1.97852 3.9555 1.97852H6.92244C7.44703 1.97852 7.95013 2.18691 8.32107 2.55785C8.69201 2.92879 8.90041 3.43189 8.90041 3.95648V6.92342C8.90041 7.23049 8.82891 7.53334 8.69159 7.80799C8.55426 8.08264 8.35488 8.32155 8.10922 8.50579L7.64638 8.85292C7.46482 8.99155 7.33685 9.18877 7.2842 9.41105C7.23156 9.63334 7.25749 9.867 7.3576 10.0723C8.70922 12.8176 10.9322 15.0378 13.6792 16.386Z" stroke="white" stroke-width="1.97796" stroke-linecap="round" stroke-linejoin="round"/>
</svg>
