<svg width="28" height="28" viewBox="0 0 28 28" fill="none" xmlns="http://www.w3.org/2000/svg">
<path d="M17.9572 14.9553L19.7149 24.8473C19.7346 24.9638 19.7182 25.0835 19.668 25.1904C19.6179 25.2974 19.5362 25.3865 19.434 25.4457C19.3319 25.505 19.214 25.5317 19.0963 25.5222C18.9785 25.5127 18.8665 25.4675 18.7751 25.3926L14.6215 22.2751C14.421 22.1253 14.1774 22.0444 13.9271 22.0444C13.6768 22.0444 13.4332 22.1253 13.2327 22.2751L9.07218 25.3914C8.98089 25.4662 8.86898 25.5114 8.75137 25.5209C8.63376 25.5304 8.51605 25.5038 8.41394 25.4447C8.31183 25.3855 8.23018 25.2967 8.17987 25.19C8.12957 25.0832 8.11301 24.9637 8.1324 24.8473L9.88897 14.9553" stroke="#6B7280" stroke-width="1.74033" stroke-linecap="round" stroke-linejoin="round"/>
<path d="M13.9232 16.243C17.7679 16.243 20.8846 13.1263 20.8846 9.2817C20.8846 5.43707 17.7679 2.32037 13.9232 2.32037C10.0786 2.32037 6.96191 5.43707 6.96191 9.2817C6.96191 13.1263 10.0786 16.243 13.9232 16.243Z" stroke="#6B7280" stroke-width="1.74033" stroke-linecap="round" stroke-linejoin="round"/>
</svg>
