<svg width="28" height="28" viewBox="0 0 28 28" fill="none" xmlns="http://www.w3.org/2000/svg">
<path d="M24.9912 17.4033H19.7238C19.1083 17.4033 18.5181 17.6478 18.083 18.083C17.6478 18.5181 17.4033 19.1083 17.4033 19.7238V24.9912" stroke="#6B7280" stroke-width="1.74033" stroke-linecap="round" stroke-linejoin="round"/>
<path d="M8.12158 3.87518V5.80115C8.12158 6.72428 8.48829 7.6096 9.14104 8.26235C9.7938 8.9151 10.6791 9.28181 11.6022 9.28181C12.2177 9.28181 12.8079 9.52629 13.243 9.96145C13.6782 10.3966 13.9227 10.9868 13.9227 11.6023C13.9227 12.8785 14.9669 13.9227 16.2431 13.9227C16.8585 13.9227 17.4488 13.6782 17.8839 13.2431C18.3191 12.8079 18.5636 12.2177 18.5636 11.6023C18.5636 10.326 19.6078 9.28181 20.884 9.28181H24.5619" stroke="#6B7280" stroke-width="1.74033" stroke-linecap="round" stroke-linejoin="round"/>
<path d="M12.7624 25.4668V20.8839C12.7624 20.2685 12.5179 19.6783 12.0828 19.2431C11.6476 18.808 11.0574 18.5635 10.442 18.5635C9.82653 18.5635 9.23632 18.319 8.80115 17.8839C8.36599 17.4487 8.12151 16.8585 8.12151 16.2431V15.0828C8.12151 14.4674 7.87704 13.8772 7.44187 13.442C7.0067 13.0069 6.41649 12.7624 5.80107 12.7624H2.37842" stroke="#6B7280" stroke-width="1.74033" stroke-linecap="round" stroke-linejoin="round"/>
<path d="M13.9225 25.5248C20.3302 25.5248 25.5247 20.3303 25.5247 13.9226C25.5247 7.51486 20.3302 2.32037 13.9225 2.32037C7.5148 2.32037 2.32031 7.51486 2.32031 13.9226C2.32031 20.3303 7.5148 25.5248 13.9225 25.5248Z" stroke="#6B7280" stroke-width="1.74033" stroke-linecap="round" stroke-linejoin="round"/>
</svg>
