<svg width="32" height="32" viewBox="0 0 32 32" fill="none" xmlns="http://www.w3.org/2000/svg">
<path d="M15.9115 29.1712C8.58841 29.1712 2.65186 23.2346 2.65186 15.9115C2.65186 12.2087 4.16962 8.86039 6.61699 6.45475M15.9115 29.1712C14.6346 28.225 14.8384 27.1232 15.479 26.0216C16.4639 24.328 16.4639 24.328 16.4639 22.0698C16.4639 19.8117 17.8058 18.7529 22.5414 19.6999C24.6691 20.1256 26.2197 17.1856 28.982 18.1564M15.9115 29.1712C22.4695 29.1712 27.9155 24.4104 28.982 18.1564M6.61699 6.45475C7.74312 6.5736 8.37363 7.1769 9.42086 8.28345C11.4091 10.3843 13.3972 10.5596 14.7228 9.85928C16.7109 8.80889 15.0402 7.1075 17.3737 6.18288C18.8043 5.61607 19.0769 4.13162 18.3998 2.88495M6.61699 6.45475C9.0098 4.10274 12.2912 2.65186 15.9115 2.65186C16.762 2.65186 17.5938 2.73193 18.3998 2.88495M28.982 18.1564C29.1064 17.4267 29.1712 16.6767 29.1712 15.9115C29.1712 9.43891 24.5335 4.04949 18.3998 2.88495" stroke="#6B7280" stroke-width="1.98895" stroke-linejoin="round"/>
</svg>
