<svg width="32" height="32" viewBox="0 0 32 32" fill="none" xmlns="http://www.w3.org/2000/svg">
<path d="M11.4405 16.8047H10.832C8.86459 16.8047 7.88089 16.8047 7.4616 16.156C7.0423 15.5075 7.44181 14.6038 8.24084 12.7966L10.643 7.36328C11.3695 5.7201 11.7327 4.89851 12.4374 4.43815C13.1421 3.97778 14.0365 3.97778 15.8253 3.97778H18.5958C20.7688 3.97778 21.8553 3.97778 22.265 4.68764C22.6749 5.3975 22.1359 6.3458 21.0577 8.2424L19.6364 10.7427C19.1005 11.6856 18.8325 12.157 18.8362 12.5429C18.8411 13.0444 19.1077 13.5064 19.5386 13.7594C19.87 13.9542 20.4101 13.9542 21.4904 13.9542C22.856 13.9542 23.5389 13.9542 23.8945 14.1906C24.3565 14.4977 24.5983 15.0472 24.5136 15.5975C24.4483 16.021 23.989 16.5289 23.0704 17.5447L15.731 25.6604C14.2895 27.2545 13.5687 28.0515 13.0846 27.7993C12.6006 27.547 12.833 26.4956 13.2979 24.3926L14.2086 20.2734C14.5625 18.6721 14.7395 17.8715 14.3138 17.3381C13.8882 16.8047 13.0723 16.8047 11.4405 16.8047Z" stroke="#6B7280" stroke-width="1.98895" stroke-linejoin="round"/>
</svg>
