<svg width="32" height="32" viewBox="0 0 32 32" fill="none" xmlns="http://www.w3.org/2000/svg">
<path d="M15.9114 9.28174C12.2498 9.28174 9.28149 12.25 9.28149 15.9116C9.28149 19.5731 12.2498 22.5414 15.9114 22.5414C19.5729 22.5414 22.5412 19.5731 22.5412 15.9116C22.5412 12.25 19.5729 9.28174 15.9114 9.28174Z" stroke="#6B7280" stroke-width="1.98895" stroke-linecap="round" stroke-linejoin="round"/>
<path d="M23.5179 8.30505L28.508 3.31494M23.5179 8.30505C22.935 7.72215 23.3146 5.33237 23.4648 3.97792M23.5179 8.30505C24.1008 8.88794 26.4906 8.5083 27.845 8.35807" stroke="#6B7280" stroke-width="1.98895" stroke-linecap="round" stroke-linejoin="round"/>
<path d="M8.3048 23.5181L3.3147 28.5083M8.3048 23.5181C7.72189 22.9352 5.33213 23.3148 3.97768 23.4651M8.3048 23.5181C8.8877 24.101 8.50805 26.4908 8.35783 27.8453" stroke="#6B7280" stroke-width="1.98895" stroke-linecap="round" stroke-linejoin="round"/>
<path d="M23.5179 23.5181L28.508 28.5083M23.5179 23.5181C24.1008 22.9352 26.4906 23.3148 27.845 23.4651M23.5179 23.5181C22.935 24.101 23.3146 26.4908 23.4648 27.8453" stroke="#6B7280" stroke-width="1.98895" stroke-linecap="round" stroke-linejoin="round"/>
<path d="M8.3048 8.30505L3.3147 3.31494M8.3048 8.30505C8.8877 7.72215 8.50805 5.33237 8.35783 3.97792M8.3048 8.30505C7.72189 8.88794 5.33213 8.5083 3.97768 8.35807" stroke="#6B7280" stroke-width="1.98895" stroke-linecap="round" stroke-linejoin="round"/>
</svg>
