<svg width="32" height="32" viewBox="0 0 32 32" fill="none" xmlns="http://www.w3.org/2000/svg">
<path d="M22.5415 15.6525C22.5415 15.1941 22.5415 14.965 22.6105 14.7608C22.8109 14.1673 23.3395 13.9371 23.8689 13.6959C24.4642 13.4247 24.7617 13.2892 25.0566 13.2653C25.3914 13.2383 25.7267 13.3104 26.0129 13.471C26.3922 13.6838 26.6568 14.0884 26.9277 14.4173C28.1786 15.9366 28.8039 16.6964 29.0328 17.5342C29.2175 18.2101 29.2175 18.9171 29.0328 19.5931C28.699 20.815 27.6445 21.8393 26.8639 22.7874C26.4646 23.2723 26.265 23.5148 26.0129 23.6563C25.7267 23.8168 25.3914 23.889 25.0566 23.8619C24.7617 23.8381 24.4642 23.7026 23.8689 23.4314C23.3395 23.1902 22.8109 22.96 22.6105 22.3665C22.5415 22.1623 22.5415 21.9332 22.5415 21.4748V15.6525Z" stroke="#6B7280" stroke-width="1.98895"/>
<path d="M9.28169 15.6526C9.28169 15.0755 9.26549 14.5568 8.79892 14.151C8.62922 14.0035 8.40423 13.901 7.95428 13.696C7.35905 13.4249 7.06144 13.2894 6.76654 13.2656C5.88179 13.194 5.40578 13.7978 4.89556 14.4176C3.64467 15.9369 3.01923 16.6965 2.79037 17.5342C2.60569 18.2104 2.60569 18.9174 2.79037 19.5933C3.12416 20.8152 4.17873 21.8394 4.95932 22.7876C5.45136 23.3852 5.92138 23.9304 6.76654 23.8622C7.06144 23.8383 7.35905 23.7026 7.95428 23.4316C8.40423 23.2266 8.62922 23.1241 8.79892 22.9765C9.26549 22.5708 9.28169 22.0522 9.28169 21.475V15.6526Z" stroke="#6B7280" stroke-width="1.98895"/>
<path d="M26.5194 13.9226V11.9336C26.5194 6.80745 21.7702 2.65186 15.9117 2.65186C10.0532 2.65186 5.30396 6.80745 5.30396 11.9336V13.9226" stroke="#6B7280" stroke-width="1.98895" stroke-linecap="round" stroke-linejoin="round"/>
<path d="M26.5194 23.2043C26.5194 29.1712 21.2155 29.1712 15.9116 29.1712" stroke="#6B7280" stroke-width="1.98895" stroke-linecap="round" stroke-linejoin="round"/>
</svg>
