<svg width="32" height="32" viewBox="0 0 32 32" fill="none" xmlns="http://www.w3.org/2000/svg">
<path d="M6.62988 21.2155L13.2597 17.2376M18.5636 14.5857L25.1934 10.6078M15.9117 6.62988V13.2597M15.9117 18.5636V25.1934M6.62988 10.6078L13.2597 14.5857M18.5636 17.2376L25.1934 21.2155" stroke="#6B7280" stroke-width="1.98895" stroke-linejoin="round"/>
<path d="M27.1825 11.9337V19.2265M17.9008 27.1823L25.1936 23.2044M5.96708 23.2044L13.9229 27.1823M4.64111 19.8895V11.9337M5.96708 8.61877L13.9229 4.64087M25.8566 8.61877L17.9008 4.64087" stroke="#6B7280" stroke-width="1.98895" stroke-linejoin="round"/>
<path d="M15.9118 6.62976C17.0103 6.62976 17.9008 5.73927 17.9008 4.64081C17.9008 3.54234 17.0103 2.65186 15.9118 2.65186C14.8133 2.65186 13.9229 3.54234 13.9229 4.64081C13.9229 5.73927 14.8133 6.62976 15.9118 6.62976Z" stroke="#6B7280" stroke-width="1.98895" stroke-linejoin="round"/>
<path d="M15.9118 29.1715C17.0103 29.1715 17.9008 28.281 17.9008 27.1826C17.9008 26.0841 17.0103 25.1936 15.9118 25.1936C14.8133 25.1936 13.9229 26.0841 13.9229 27.1826C13.9229 28.281 14.8133 29.1715 15.9118 29.1715Z" stroke="#6B7280" stroke-width="1.98895" stroke-linejoin="round"/>
<path d="M4.64081 11.9337C5.73927 11.9337 6.62976 11.0432 6.62976 9.94476C6.62976 8.84629 5.73927 7.95581 4.64081 7.95581C3.54234 7.95581 2.65186 8.84629 2.65186 9.94476C2.65186 11.0432 3.54234 11.9337 4.64081 11.9337Z" stroke="#6B7280" stroke-width="1.98895" stroke-linejoin="round"/>
<path d="M27.1823 11.9337C28.2808 11.9337 29.1713 11.0432 29.1713 9.94476C29.1713 8.84629 28.2808 7.95581 27.1823 7.95581C26.0838 7.95581 25.1934 8.84629 25.1934 9.94476C25.1934 11.0432 26.0838 11.9337 27.1823 11.9337Z" stroke="#6B7280" stroke-width="1.98895" stroke-linejoin="round"/>
<path d="M27.1823 23.8673C28.2808 23.8673 29.1713 22.9768 29.1713 21.8784C29.1713 20.7799 28.2808 19.8894 27.1823 19.8894C26.0838 19.8894 25.1934 20.7799 25.1934 21.8784C25.1934 22.9768 26.0838 23.8673 27.1823 23.8673Z" stroke="#6B7280" stroke-width="1.98895" stroke-linejoin="round"/>
<path d="M4.64081 23.8673C5.73927 23.8673 6.62976 22.9768 6.62976 21.8784C6.62976 20.7799 5.73927 19.8894 4.64081 19.8894C3.54234 19.8894 2.65186 20.7799 2.65186 21.8784C2.65186 22.9768 3.54234 23.8673 4.64081 23.8673Z" stroke="#6B7280" stroke-width="1.98895" stroke-linejoin="round"/>
<path d="M15.9117 12.9282L18.5636 14.4199V17.4034L15.9117 18.8951L13.2598 17.4034V14.4199L15.9117 12.9282Z" stroke="#6B7280" stroke-width="1.98895" stroke-linejoin="round"/>
</svg>
