<svg width="32" height="32" viewBox="0 0 32 32" fill="none" xmlns="http://www.w3.org/2000/svg">
<path d="M15.9115 29.1712C23.2346 29.1712 29.1712 23.2346 29.1712 15.9115C29.1712 8.58841 23.2346 2.65186 15.9115 2.65186C8.58841 2.65186 2.65186 8.58841 2.65186 15.9115C2.65186 23.2346 8.58841 29.1712 15.9115 29.1712Z" stroke="#6B7280" stroke-width="1.98895" stroke-linecap="round" stroke-linejoin="round"/>
<path d="M15.9116 23.8674C20.3055 23.8674 23.8674 20.3055 23.8674 15.9116C23.8674 11.5177 20.3055 7.95581 15.9116 7.95581C11.5177 7.95581 7.95581 11.5177 7.95581 15.9116C7.95581 20.3055 11.5177 23.8674 15.9116 23.8674Z" stroke="#6B7280" stroke-width="1.98895" stroke-linecap="round" stroke-linejoin="round"/>
<path d="M15.9117 18.5634C17.3763 18.5634 18.5636 17.3761 18.5636 15.9115C18.5636 14.4468 17.3763 13.2595 15.9117 13.2595C14.4471 13.2595 13.2598 14.4468 13.2598 15.9115C13.2598 17.3761 14.4471 18.5634 15.9117 18.5634Z" stroke="#6B7280" stroke-width="1.98895" stroke-linecap="round" stroke-linejoin="round"/>
</svg>
