<svg width="32" height="32" viewBox="0 0 32 32" fill="none" xmlns="http://www.w3.org/2000/svg">
<path d="M15.9115 29.1714L13.2596 21.2156H2.65186L5.30379 29.1714H15.9115ZM15.9115 29.1714H21.2154" stroke="#6B7280" stroke-width="1.98895" stroke-linecap="round" stroke-linejoin="round"/>
<path d="M15.9114 17.2376V16.5746C15.9114 14.0744 15.9114 12.8242 15.1347 12.0475C14.3579 11.2708 13.1078 11.2708 10.6076 11.2708C8.10731 11.2708 6.85717 11.2708 6.08045 12.0475C5.30371 12.8242 5.30371 14.0744 5.30371 16.5746V17.2376" stroke="#6B7280" stroke-width="1.98895" stroke-linecap="round" stroke-linejoin="round"/>
<path d="M25.1935 17.2376C25.1935 18.7023 24.0062 19.8896 22.5416 19.8896C21.0769 19.8896 19.8896 18.7023 19.8896 17.2376C19.8896 15.773 21.0769 14.5857 22.5416 14.5857C24.0062 14.5857 25.1935 15.773 25.1935 17.2376Z" stroke="#6B7280" stroke-width="1.98895"/>
<path d="M13.2594 5.30379C13.2594 6.76841 12.0721 7.95572 10.6075 7.95572C9.14288 7.95572 7.95557 6.76841 7.95557 5.30379C7.95557 3.83917 9.14288 2.65186 10.6075 2.65186C12.0721 2.65186 13.2594 3.83917 13.2594 5.30379Z" stroke="#6B7280" stroke-width="1.98895"/>
<path d="M18.5635 23.2043H26.5193C27.9839 23.2043 29.1712 24.3916 29.1712 25.8563V26.5193C29.1712 27.9839 27.9839 29.1712 26.5193 29.1712H25.1933" stroke="#6B7280" stroke-width="1.98895" stroke-linecap="round"/>
</svg>
