<svg width="32" height="32" viewBox="0 0 32 32" fill="none" xmlns="http://www.w3.org/2000/svg">
<path d="M15.6483 8.60488L17.6181 6.63506C19.8361 4.41709 22.7398 3.49709 25.8129 3.34676C27.0082 3.28828 27.6059 3.25904 28.0851 3.7383C28.5644 4.21754 28.5351 4.81518 28.4766 6.01049C28.3262 9.08356 27.4063 11.9873 25.1883 14.2052L23.2185 16.1751C21.5963 17.7973 21.1351 18.2586 21.4756 20.0182C21.8118 21.3623 22.137 22.6639 21.1597 23.6412C19.9741 24.8268 18.8927 24.8268 17.7071 23.6412L8.18213 14.1163C6.9966 12.9307 6.99656 11.8493 8.18213 10.6637C9.15949 9.68634 10.4611 10.0117 11.8052 10.3477C13.5648 10.6883 14.0261 10.2271 15.6483 8.60488Z" stroke="#6B7280" stroke-width="1.98895" stroke-linejoin="round"/>
<path d="M22.5361 9.28174H22.5481" stroke="#6B7280" stroke-width="2.65193" stroke-linecap="round" stroke-linejoin="round"/>
<path d="M3.31494 28.5083L9.94478 21.8784" stroke="#6B7280" stroke-width="1.98895" stroke-linecap="round"/>
<path d="M11.2705 28.5084L13.9224 25.8564" stroke="#6B7280" stroke-width="1.98895" stroke-linecap="round"/>
<path d="M3.31494 20.5526L5.96688 17.9006" stroke="#6B7280" stroke-width="1.98895" stroke-linecap="round"/>
</svg>
