<svg width="32" height="32" viewBox="0 0 32 32" fill="none" xmlns="http://www.w3.org/2000/svg">
<path d="M2.6521 12.5965C2.65213 11.1209 3.09974 9.68011 3.93581 8.4643C4.77189 7.2485 5.95709 6.3149 7.3349 5.78683C8.7127 5.25875 10.2183 5.16103 11.6528 5.50658C13.0873 5.85212 14.3832 6.62468 15.3694 7.72221C15.4389 7.79648 15.5229 7.85569 15.6162 7.89618C15.7095 7.93666 15.8101 7.95755 15.9118 7.95755C16.0135 7.95755 16.1141 7.93666 16.2074 7.89618C16.3006 7.85569 16.3846 7.79648 16.4541 7.72221C17.4372 6.61755 18.7335 5.8385 20.1703 5.48875C21.6071 5.13901 23.1164 5.23515 24.4972 5.7644C25.8781 6.29364 27.065 7.23088 27.9 8.45136C28.735 9.67185 29.1785 11.1177 29.1714 12.5965C29.1714 15.6329 27.1825 17.9003 25.1935 19.8893L17.9113 26.9341C17.6643 27.2179 17.3596 27.4459 17.0177 27.6028C16.6757 27.7598 16.3043 27.8422 15.9281 27.8446C15.5518 27.847 15.1794 27.7693 14.8355 27.6167C14.4916 27.464 14.1841 27.24 13.9334 26.9593L6.63 19.8893C4.64105 17.9003 2.6521 15.6462 2.6521 12.5965Z" stroke="#6B7280" stroke-width="1.98895" stroke-linecap="round" stroke-linejoin="round"/>
</svg>
