<svg width="28" height="28" viewBox="0 0 28 28" fill="none" xmlns="http://www.w3.org/2000/svg">
<path d="M18.5637 24.3646V22.0442C18.5637 20.8134 18.0747 19.6329 17.2044 18.7626C16.334 17.8923 15.1536 17.4033 13.9228 17.4033H6.96144C5.7306 17.4033 4.55017 17.8923 3.67984 18.7626C2.80951 19.6329 2.32056 20.8134 2.32056 22.0442V24.3646" stroke="#6B7280" stroke-width="1.74033" stroke-linecap="round" stroke-linejoin="round"/>
<path d="M18.5637 3.62915C19.5589 3.88715 20.4403 4.4683 21.0694 5.28138C21.6986 6.09446 22.04 7.09344 22.04 8.12153C22.04 9.14961 21.6986 10.1486 21.0694 10.9617C20.4403 11.7748 19.5589 12.3559 18.5637 12.6139" stroke="#6B7280" stroke-width="1.74033" stroke-linecap="round" stroke-linejoin="round"/>
<path d="M25.5251 24.3646V22.0442C25.5243 21.0159 25.1821 20.017 24.5521 19.2043C23.9221 18.3917 23.0401 17.8112 22.0444 17.5541" stroke="#6B7280" stroke-width="1.74033" stroke-linecap="round" stroke-linejoin="round"/>
<path d="M10.4419 12.7624C13.005 12.7624 15.0828 10.6846 15.0828 8.12154C15.0828 5.55845 13.005 3.48065 10.4419 3.48065C7.87882 3.48065 5.80103 5.55845 5.80103 8.12154C5.80103 10.6846 7.87882 12.7624 10.4419 12.7624Z" stroke="#6B7280" stroke-width="1.74033" stroke-linecap="round" stroke-linejoin="round"/>
</svg>
