<svg width="32" height="32" viewBox="0 0 32 32" fill="none" xmlns="http://www.w3.org/2000/svg">
<path d="M18.9106 4.77257C17.4968 3.35875 16.79 2.65186 15.9115 2.65186C15.0331 2.65186 14.3262 3.35875 12.9124 4.77257C12.064 5.62096 11.2233 6.01485 10.0137 6.01485C8.95762 6.01485 7.45508 5.81002 6.62976 6.64227C5.81096 7.46795 6.01488 8.96432 6.01488 10.0137C6.01488 11.2233 5.62096 12.064 4.77254 12.9124C3.35875 14.3262 2.65187 15.0331 2.65186 15.9115C2.65188 16.7898 3.35878 17.4968 4.77258 18.9106C5.72301 19.861 6.01488 20.4747 6.01488 21.8093C6.01488 22.8654 5.81006 24.368 6.64234 25.1933C7.46801 26.0121 8.96436 25.8081 10.0137 25.8081C11.3018 25.8081 11.9221 26.0601 12.8413 26.9794C13.6241 27.7622 14.6735 29.1712 15.9115 29.1712C17.1496 29.1712 18.1989 27.7622 18.9817 26.9794C19.901 26.0601 20.5212 25.8081 21.8093 25.8081C22.8587 25.8081 24.355 26.0121 25.1807 25.1933M25.1807 25.1933C26.013 24.368 25.8081 22.8654 25.8081 21.8093C25.8081 20.4747 26.1 19.861 27.0504 18.9106C28.4643 17.4968 29.1712 16.7898 29.1712 15.9115C29.1712 15.0331 28.4643 14.3262 27.0504 12.9124M25.1807 25.1933H25.1933" stroke="#6B7280" stroke-width="1.98895" stroke-linecap="round" stroke-linejoin="round"/>
<path d="M11.2708 12.5966L15.9116 17.2375L27.8456 3.97778" stroke="#6B7280" stroke-width="1.98895" stroke-linecap="round" stroke-linejoin="round"/>
</svg>
