<svg width="32" height="32" viewBox="0 0 32 32" fill="none" xmlns="http://www.w3.org/2000/svg">
<path d="M23.8674 27.1823C25.0459 26.9175 25.941 26.4824 26.6636 25.7671C28.5083 23.9407 28.5083 21.0013 28.5083 15.1226C28.5083 9.24383 28.5083 6.30444 26.6636 4.47815C24.8188 2.65186 21.8497 2.65186 15.9116 2.65186C9.9735 2.65186 7.00443 2.65186 5.15968 4.47815C3.31494 6.30444 3.31494 9.24383 3.31494 15.1226C3.31494 21.0013 3.31494 23.9407 5.15968 25.7671C5.88226 26.4824 6.77736 26.9175 7.95583 27.1823" stroke="#6B7280" stroke-width="1.98895" stroke-linecap="round"/>
<path d="M3.31494 11.2705H28.5083" stroke="#6B7280" stroke-width="1.98895" stroke-linejoin="round"/>
<path d="M9.28149 7.29297H9.2934" stroke="#6B7280" stroke-width="2.65193" stroke-linecap="round" stroke-linejoin="round"/>
<path d="M14.5852 7.29297H14.5971" stroke="#6B7280" stroke-width="2.65193" stroke-linecap="round" stroke-linejoin="round"/>
<path d="M20.5525 23.2044V19.8894C17.9006 19.8894 15.9116 18.5635 15.9116 18.5635C15.9116 18.5635 13.9227 19.8894 11.2708 19.8894V23.2044C11.2708 27.8452 15.9116 29.1712 15.9116 29.1712C15.9116 29.1712 20.5525 27.8452 20.5525 23.2044Z" stroke="#6B7280" stroke-width="1.98895" stroke-linecap="round" stroke-linejoin="round"/>
</svg>
