<svg width="32" height="32" viewBox="0 0 32 32" fill="none" xmlns="http://www.w3.org/2000/svg">
<path d="M2.73425 16.373C2.62374 16.0753 2.62374 15.7478 2.73425 15.4501C3.81053 12.8404 5.63747 10.6091 7.98345 9.03895C10.3294 7.46881 13.0888 6.63062 15.9117 6.63062C18.7346 6.63062 21.494 7.46881 23.84 9.03895C26.1859 10.6091 28.0129 12.8404 29.0892 15.4501C29.1997 15.7478 29.1997 16.0753 29.0892 16.373C28.0129 18.9827 26.1859 21.2141 23.84 22.7842C21.494 24.3543 18.7346 25.1925 15.9117 25.1925C13.0888 25.1925 10.3294 24.3543 7.98345 22.7842C5.63747 21.2141 3.81053 18.9827 2.73425 16.373Z" stroke="white" stroke-width="1.98895" stroke-linecap="round" stroke-linejoin="round"/>
<path d="M15.912 19.8895C18.1089 19.8895 19.8899 18.1086 19.8899 15.9116C19.8899 13.7147 18.1089 11.9337 15.912 11.9337C13.715 11.9337 11.9341 13.7147 11.9341 15.9116C11.9341 18.1086 13.715 19.8895 15.912 19.8895Z" stroke="white" stroke-width="1.98895" stroke-linecap="round" stroke-linejoin="round"/>
</svg>
